<?xml version="1.0" encoding="UTF-8"?>
<svg xmlns="http://www.w3.org/2000/svg" xmlns:xlink="http://www.w3.org/1999/xlink" width="24pt" height="24pt" viewBox="0 0 24 24" version="1.1">
<g id="surface1">
<path style=" stroke:none;fill-rule:nonzero;fill:#5B5B5B;fill-opacity:1;" d="M 11 2 L 11 4.054688 C 7.640625 4.304688 5.847656 5.761719 4.929688 7 L 19.066406 7 C 18.152344 5.761719 16.359375 4.304688 13 4.054688 L 13 2 Z M 2 9 L 2 11 L 3 11 C 3.550781 11 4 11.449219 4 12 L 4 18 C 4 19.652344 5.347656 21 7 21 L 17 21 C 18.652344 21 20 19.652344 20 18 L 20 12 C 20 11.449219 20.449219 11 21 11 L 22 11 L 22 9 Z "/>
</g>
</svg>
